<?xml version="1.0" encoding="UTF-8"?>
<svg version="1.1" xmlns="http://www.w3.org/2000/svg" width="1024" height="1024">
<path d="M0 0 C3.31885165 4.3298953 5.35468584 8.83718535 7.328125 13.89453125 C7.63408096 14.66232407 7.94003693 15.43011688 8.25526428 16.22117615 C9.26037403 18.74895581 10.25530236 21.28060698 11.25 23.8125 C11.9567822 25.59687511 12.66406645 27.38105145 13.37182617 29.16503906 C15.59280367 34.77215834 17.79849698 40.38521001 20 46 C20.53188934 47.35626495 20.53188934 47.35626495 21.07452393 48.7399292 C25.16485231 59.17454626 29.2355161 69.61676829 33.29818726 80.06217957 C36.01614507 87.04777387 38.75411988 94.0253293 41.5 101 C44.58003449 108.82596284 47.64868779 116.65620451 50.703125 124.4921875 C51.19363846 125.75055672 51.19363846 125.75055672 51.69406128 127.03434753 C53.05467996 130.5251584 54.41522774 134.01599689 55.7756958 137.50686646 C60.77458525 150.33071784 65.81150801 163.13903288 70.875 175.9375 C75.26462987 187.03569622 79.6219886 198.14417044 83.89013672 209.28979492 C88.23079168 220.62121637 92.6137522 231.93616046 97 243.25 C97.40907593 244.30522858 97.81815186 245.36045715 98.23962402 246.44766235 C104.49685735 262.58432697 110.78989605 278.70672002 117.10549927 294.82061768 C123.0838222 310.0755123 129.02044774 325.34624168 134.9375 340.625 C140.24141989 354.31991109 145.55515095 368.01019088 150.93798828 381.67431641 C154.91631592 391.77502627 158.86638268 401.88666902 162.8125 412 C163.15585388 412.87977509 163.49920776 413.75955017 163.85296631 414.66598511 C167.39975566 423.75461982 170.94247227 432.84479159 174.46875 441.94140625 C175.30619681 444.10054712 176.14371221 446.25966137 176.98126221 448.41876221 C177.53334608 449.84257025 178.085066 451.26651947 178.63641357 452.69061279 C182.40964376 462.43352215 186.25005687 472.14785661 190.1328125 481.84765625 C191.01989014 484.06888321 191.90685317 486.29015595 192.79370117 488.51147461 C194.53543265 492.87380467 196.28723443 497.23191748 198.04418945 501.58813477 C198.84105032 503.58203709 199.63753692 505.57608904 200.43359375 507.5703125 C200.80988922 508.49558243 201.18618469 509.42085236 201.57388306 510.37416077 C202.07762955 511.64325539 202.07762955 511.64325539 202.59155273 512.93798828 C202.88907944 513.67767853 203.18660614 514.41736877 203.4931488 515.17947388 C204 517 204 517 203 519 C194.48103626 519.04638017 185.96212546 519.08189803 177.4430666 519.10362434 C173.48714545 519.1140529 169.53131082 519.1281951 165.57543945 519.15087891 C161.75641723 519.17264046 157.93747812 519.18457561 154.11839867 519.18975449 C152.66277954 519.1934443 151.20716485 519.20064961 149.75158119 519.21146011 C147.70969506 519.22601926 145.66815055 519.22797612 143.6262207 519.22705078 C142.46484085 519.231492 141.303461 519.23593323 140.10688782 519.24050903 C136.96206687 518.99706354 134.7982875 518.43103148 132 517 C129.01901261 513.06655078 127.41631543 508.37941155 125.625 503.8125 C125.29048828 502.96880859 124.95597656 502.12511719 124.61132812 501.25585938 C120.58970845 491.05589302 116.70699793 480.8013915 112.80834961 470.55395508 C109.36592189 461.51462305 105.8623917 452.50508683 102.18359375 443.55859375 C100 438.2049582 100 438.2049582 100 436 C99.38125 436.309375 98.7625 436.61875 98.125 436.9375 C95.36998443 437.87420529 93.47468696 438.18027139 90.625 438.375 C71.49212259 440.10148746 53.82462746 448.29748646 41.4375 463.0625 C25.01865319 485.17066815 21.83064158 511.37305473 19 538 C18.01 538 17.02 538 16 538 C15.90295776 536.93809448 15.90295776 536.93809448 15.80395508 535.85473633 C13.9322658 515.96341876 11.76542656 496.20511671 3 478 C2.70738281 477.29230469 2.41476562 476.58460938 2.11328125 475.85546875 C-0.63748166 469.54489503 -5.22235438 464.86538202 -10 460 C-10.61746094 459.35804688 -11.23492188 458.71609375 -11.87109375 458.0546875 C-29.14295207 441.48856103 -57.79946385 438.12888795 -80.48046875 435.4921875 C-83 435 -83 435 -85 433 C-84.35264893 432.87995605 -83.70529785 432.75991211 -83.03833008 432.63623047 C-37.82176348 424.7977064 -37.82176348 424.7977064 -3.08203125 397.265625 C9.23316413 377.94948365 12.79202695 357.39323003 16 335 C8.98784097 336.10281465 2.44660571 337.59802627 -4.1875 340.125 C-5.00065674 340.43139404 -5.81381348 340.73778809 -6.65161133 341.0534668 C-25.59122337 348.35866661 -42.79383656 358.55986158 -58 372 C-58.67933594 372.56976562 -59.35867188 373.13953125 -60.05859375 373.7265625 C-64.56876342 377.53348326 -68.75476775 381.65358806 -72.9375 385.8125 C-73.51814209 386.38846924 -74.09878418 386.96443848 -74.69702148 387.55786133 C-77.71751004 390.49866358 -77.71751004 390.49866358 -80 394 C-80.66 394 -81.32 394 -82 394 C-82.226875 394.52078125 -82.45375 395.0415625 -82.6875 395.578125 C-84.47379558 398.87426565 -86.74465217 401.76765786 -89 404.75 C-102.53819818 422.99122239 -112.7986821 442.75794307 -121.98828125 463.48046875 C-131.74059819 485.45835192 -145.10007868 510.82263358 -168.69921875 520.25390625 C-180.64326999 524.12710453 -191.78204411 523.7391259 -203.24609375 518.5078125 C-207.4568438 516.20235219 -210.72954903 513.49697571 -214 510 C-214.61617188 509.34257813 -215.23234375 508.68515625 -215.8671875 508.0078125 C-228.01300836 493.77687218 -229.07818694 474.39361011 -227.82568359 456.51123047 C-224.48620198 416.00057883 -209.74306554 374.78285701 -193.27294922 337.85498047 C-191.83103518 334.62104437 -190.41751172 331.37531195 -189.00390625 328.12890625 C-183.99273671 316.67592493 -178.85174515 305.32967816 -173.12939453 294.21484375 C-171.23246408 290.49479337 -169.38481146 286.75024187 -167.52758789 283.01025391 C-160.47475675 268.8266239 -153.00357464 254.9724514 -145.17773438 241.20068359 C-141.21254944 234.20309985 -137.36382083 227.15018012 -133.5625 220.0625 C-128.66749697 210.95204769 -123.55410433 201.99356411 -118.30761719 193.08154297 C-113.43898413 184.79838607 -108.73153381 176.43216893 -104.05908203 168.03710938 C-99.97597545 160.71088923 -95.79422587 153.44852476 -91.56103516 146.20825195 C-88.90811578 141.64589061 -86.46141753 137.03870208 -84.18359375 132.27587891 C-83.03141835 130.06041292 -81.75276247 128.08387589 -80.328125 126.03515625 C-76.79247277 120.79365512 -73.67456669 115.34362702 -70.56671143 109.84048462 C-69.17932211 107.38407275 -67.78428896 104.93202952 -66.38977051 102.47966003 C-65.66732164 101.20904279 -64.94523666 99.93821858 -64.22351074 98.66719055 C-60.55048157 92.20033124 -56.84248376 85.75391581 -53.125 79.3125 C-52.49940186 78.22807617 -51.87380371 77.14365234 -51.22924805 76.02636719 C-47.80771004 70.10375805 -44.35911723 64.19847072 -40.875 58.3125 C-37.08075241 51.90174681 -33.40379706 45.42920826 -29.75 38.9375 C-27.50364826 34.95626217 -25.25335378 30.97727881 -23 27 C-22.06873291 25.35572021 -22.06873291 25.35572021 -21.11865234 23.67822266 C-19.2346598 20.36314343 -17.33788624 17.05570338 -15.4375 13.75 C-14.56206543 12.20493774 -14.56206543 12.20493774 -13.66894531 10.62866211 C-13.1169043 9.67354736 -12.56486328 8.71843262 -11.99609375 7.734375 C-11.51325928 6.89100586 -11.0304248 6.04763672 -10.53295898 5.17871094 C-7.77918431 1.26492128 -4.8981742 -1.10208919 0 0 Z M-39 76 C-43.96284119 82.5855487 -47.92494091 89.91381106 -52 97.0625 C-53.32888824 99.38051983 -54.65830851 101.69822792 -55.98828125 104.015625 C-56.32322098 104.59995804 -56.65816071 105.18429108 -57.00325012 105.78633118 C-60.36512339 111.64767509 -63.77440941 117.48089018 -67.1875 123.3125 C-72.97441692 133.21396794 -78.68552069 143.15651921 -84.36035156 153.12255859 C-87.14645563 158.01193062 -89.94001819 162.89703922 -92.73275757 167.78262329 C-93.75353996 169.56869389 -94.77392528 171.35499076 -95.79418945 173.14135742 C-98.87340052 178.53229483 -101.95410647 183.92234334 -105.04374695 189.30731201 C-112.64746263 202.56003876 -120.17989437 215.8474103 -127.57104492 229.22045898 C-130.42503181 234.38107737 -133.29146355 239.53176445 -136.23046875 244.64453125 C-145.70970379 261.14585679 -154.40802238 278.02460555 -163 295 C-163.33839905 295.66692871 -163.6767981 296.33385742 -164.02545166 297.02099609 C-168.81139864 306.46385508 -173.40349317 315.97027719 -177.75 325.625 C-178.04547729 326.28063934 -178.34095459 326.93627869 -178.64538574 327.61178589 C-215.62779354 406.66805387 -215.62779354 406.66805387 -216 491 C-214.6128987 494.23656971 -212.99653184 497.10412949 -211 500 C-210.278125 501.051875 -209.55625 502.10375 -208.8125 503.1875 C-201.87115918 510.12884082 -193.94757935 513.75842909 -184.19140625 514.09765625 C-173.80448214 513.75997991 -164.35073975 509.35073975 -157 502 C-153.86988354 498.42934863 -150.9099204 494.7515905 -148 491 C-147.42378906 490.27425781 -146.84757812 489.54851562 -146.25390625 488.80078125 C-137.06317613 476.5244343 -130.79579405 461.92353212 -124.5625 448 C-112.49039501 421.18291181 -96.32204927 397.25598492 -76 376 C-75.41114014 375.37834961 -74.82228027 374.75669922 -74.21557617 374.11621094 C-69.28238658 369.02953338 -64.00941697 364.70284162 -58.3125 360.5 C-57.43182861 359.84636475 -56.55115723 359.19272949 -55.64379883 358.51928711 C-48.9653978 353.60997465 -42.22013113 349.08411458 -35 345 C-33.9171875 344.360625 -32.834375 343.72125 -31.71875 343.0625 C-20.43365355 336.57392702 -8.29206589 332.18439972 4 328 C4.79857422 327.72494629 5.59714844 327.44989258 6.41992188 327.16650391 C22.07489006 321.94473901 38.65100229 321.21591601 55 320 C51.21117267 309.07321547 47.23562768 298.23714765 43.05300903 287.45516968 C41.406188 283.20919942 39.76820006 278.95981823 38.12890625 274.7109375 C37.61852058 273.38895607 37.61852058 273.38895607 37.0978241 272.04026794 C33.3909263 262.43351098 29.72476781 252.81133989 26.0625 243.1875 C25.39862263 241.44392052 24.73472284 239.70034957 24.07080078 237.95678711 C20.97391546 229.82231615 17.88042517 221.68656332 14.79112244 213.54920959 C13.369804 209.80618607 11.94716895 206.06366363 10.52438354 202.32119751 C9.85748038 200.56589535 9.19120819 198.81035328 8.52566528 197.05453491 C5.07262376 187.94487274 1.55820246 178.86786162 -2.09375 169.8359375 C-4.50649957 163.85998228 -6.80653079 157.86903598 -8.91015625 151.77734375 C-12.77576913 140.58845546 -17.1360174 129.58929654 -21.4375 118.5625 C-22.26651876 116.43173504 -23.09529591 114.30087607 -23.92382812 112.16992188 C-25.90772433 107.06891711 -27.89442038 101.96900884 -29.88201904 96.8694458 C-31.6225927 92.4020336 -33.36026497 87.93349435 -35.09765625 83.46484375 C-35.54328163 82.31877403 -35.54328163 82.31877403 -35.99790955 81.14955139 C-36.66531618 79.43305104 -37.33266565 77.71652846 -38 76 C-38.33 76 -38.66 76 -39 76 Z M30.8125 330.375 C29.90395264 330.50100586 28.99540527 330.62701172 28.05932617 330.75683594 C23.96113348 331.37354492 20.66435568 331.98463036 17 334 C17.66 334 18.32 334 19 334 C18.95359375 334.62261719 18.9071875 335.24523437 18.859375 335.88671875 C17.99090557 358.12573955 25.23487617 385.90275389 40.375 402.4375 C42.20832313 404.34463786 44.08584672 406.17061636 46 408 C47.04414062 408.99966797 47.04414062 408.99966797 48.109375 410.01953125 C61.37476467 421.40822819 80.06490232 426.43407611 97 429 C94.77425713 422.13905929 92.29522159 415.41164731 89.6875 408.6875 C89.26235107 407.58664062 88.83720215 406.48578125 88.39916992 405.3515625 C86.93588502 401.56649759 85.46868229 397.78297294 84 394 C83.72079712 393.28072327 83.44159424 392.56144653 83.15393066 391.82037354 C79.90496018 383.45154556 76.65162149 375.08442099 73.39453125 366.71875 C73.1188028 366.01055115 72.84307434 365.30235229 72.55899048 364.57269287 C72.28211395 363.86155334 72.00523743 363.15041382 71.7199707 362.41772461 C71.14664257 360.94515152 70.57331915 359.47257659 70 358 C69.68952728 357.20256378 69.37905457 356.40512756 69.05917358 355.58352661 C68.1121473 353.15082144 67.16541566 350.71800178 66.21875 348.28515625 C65.93058914 347.54507324 65.64242828 346.80499023 65.34553528 346.04248047 C63.48267383 341.25419769 61.63996404 336.45872834 59.82421875 331.65234375 C59.10890931 329.80413941 59.10890931 329.80413941 57 329 C48.17219674 328.34515582 39.55301216 329.14375021 30.8125 330.375 Z " fill="#D5D5D6" transform="translate(555,206)"/>
<path d="M0 0 C0.76948975 0.33378662 1.53897949 0.66757324 2.33178711 1.01147461 C7.62860537 3.38221074 7.62860537 3.38221074 8.75 5.625 C10.39962044 6.33279562 12.06982858 6.99314066 13.75 7.625 C47.22995334 23.97824453 78.78400998 51.86579569 100.75 81.625 C101.99783383 83.18381436 103.24567975 84.74262347 104.49707031 86.29858398 C131.36924978 120.10872873 148.05974875 163.25340873 154.75 205.625 C154.89421387 206.49366699 155.03842773 207.36233398 155.18701172 208.25732422 C157.19436158 220.63334738 158.02014201 232.99357362 158.3215332 245.515625 C158.35173457 246.70191026 158.35173457 246.70191026 158.38254607 247.91216087 C159.02712375 273.94178864 158.914942 299.98464797 158.91725707 326.02052307 C158.91775863 330.48442682 158.92006575 334.94832855 158.92275429 339.41223145 C158.93150675 354.25357372 158.93618107 369.09490891 158.93542381 383.93625379 C158.93536388 385.12433892 158.93536388 385.12433892 158.93530273 386.33642578 C158.93524141 387.52601682 158.93524141 387.52601682 158.93517885 388.73964 C158.93477168 401.61445674 158.9443735 414.48924434 158.9584411 427.36405265 C158.97289107 440.69728889 158.9797069 454.03051098 158.97884732 467.36375523 C158.9785188 474.80441595 158.98111314 482.24504594 158.99202538 489.68569946 C159.00124425 496.00986418 159.00321349 502.33398415 158.99651595 508.65815276 C158.99330982 511.8661409 158.99411812 515.07402832 159.0018692 518.28201103 C159.2013796 606.70001555 133.54711722 682.68802943 71.25 746.3125 C66.88862929 750.63056632 62.3429458 754.57458249 57.5390625 758.390625 C55.67170712 759.88660158 53.83276354 761.41871178 52.0234375 762.984375 C43.47001001 770.3832076 34.25343715 776.52300048 24.75 782.625 C23.85015381 783.20942871 23.85015381 783.20942871 22.93212891 783.80566406 C14.2059334 789.45911114 5.13659497 794.18938644 -4.25 798.625 C-4.95785645 798.96031738 -5.66571289 799.29563477 -6.39501953 799.64111328 C-17.37443122 804.79380773 -28.55357576 809.01119635 -40.05004883 812.85986328 C-42.09910051 813.57251759 -44.10058278 814.35959197 -46.11328125 815.16796875 C-51.20755579 817.09442284 -56.47862925 818.08768558 -61.8125 819.125 C-62.90296631 819.33930664 -63.99343262 819.55361328 -65.11694336 819.77441406 C-86.68490229 823.90216373 -108.28102389 826.11531518 -130.25 825.625 C-131.06710449 825.60711426 -131.88420898 825.58922852 -132.72607422 825.57080078 C-170.41728575 824.60616488 -207.66712459 816.76254838 -242.25 801.625 C-243.02617676 801.28774902 -243.80235352 800.95049805 -244.60205078 800.60302734 C-270.15193085 789.36662632 -293.35375044 774.06622571 -314.25 755.625 C-315.04921875 754.93664062 -315.8484375 754.24828125 -316.671875 753.5390625 C-328.79361169 742.92237366 -340.44938158 731.42792054 -350.25 718.625 C-351.23825473 717.38695912 -352.22794972 716.15006713 -353.21875 714.9140625 C-377.99774167 683.66822153 -394.22775333 648.00955777 -403.6875 609.375 C-404.0580249 607.87718994 -404.0580249 607.87718994 -404.43603516 606.34912109 C-405.87612677 600.19562914 -406.63130107 594.24994546 -406.92602539 587.93457031 C-407.03293701 587.17241211 -407.13984863 586.41025391 -407.25 585.625 C-407.91 585.295 -408.57 584.965 -409.25 584.625 C-409.31058594 583.53703125 -409.37117187 582.4490625 -409.43359375 581.328125 C-409.51814702 579.84374532 -409.6027872 578.35937059 -409.6875 576.875 C-409.72681641 576.16472656 -409.76613281 575.45445312 -409.80664062 574.72265625 C-409.98865204 571.55845775 -410.17500618 568.40038121 -410.48016548 565.24525738 C-411.44978095 555.20260114 -411.60339859 545.14448064 -411.80419922 535.0637207 C-411.82516151 534.05313555 -411.84612381 533.0425504 -411.86772132 532.00134146 C-412.39862056 505.87838334 -412.39729519 479.75494619 -412.3843255 453.62764525 C-412.38251148 449.54380406 -412.38289605 445.45996482 -412.38381577 441.37612343 C-412.383969 440.68783186 -412.38412223 439.99954028 -412.38428011 439.29039139 C-412.38459997 437.89029151 -412.38492419 436.49019162 -412.3852527 435.09009174 C-412.38806659 422.13429502 -412.38488366 409.17850552 -412.37945233 396.22270999 C-412.37496672 385.18110323 -412.37578263 374.13950697 -412.38037109 363.09790039 C-412.38575357 350.14030944 -412.38781419 337.18272468 -412.38475883 324.22513276 C-412.3844404 322.83800368 -412.38412603 321.45087459 -412.38381577 320.0637455 C-412.38366149 319.38194854 -412.38350721 318.70015158 -412.38334826 317.9976941 C-412.38249565 313.2624554 -412.38391796 308.52722073 -412.38629532 303.79198265 C-412.3892173 297.40317322 -412.38712025 291.01438337 -412.38140106 284.62557602 C-412.38009757 282.30631225 -412.38042555 279.98704679 -412.38266373 277.66778374 C-412.41920804 235.90101272 -412.41920804 235.90101272 -410 216.5625 C-409.87069092 215.50490479 -409.74138184 214.44730957 -409.6081543 213.35766602 C-405.85949989 184.2630205 -397.79311532 157.13531767 -385.25 130.625 C-384.8988916 129.87879395 -384.5477832 129.13258789 -384.18603516 128.36376953 C-375.3423215 109.89412878 -363.26735937 92.39046857 -350.25 76.625 C-349.78625977 76.06119629 -349.32251953 75.49739258 -348.84472656 74.91650391 C-336.97041874 60.5764716 -324.01169866 47.01060039 -309.25 35.625 C-307.56169944 34.25098309 -305.87419468 32.87598776 -304.1875 31.5 C-288.49880568 18.73343139 -270.58743555 8.09730332 -252.25 -0.375 C-251.5271582 -0.71370117 -250.80431641 -1.05240234 -250.05957031 -1.40136719 C-224.40178571 -13.375 -224.40178571 -13.375 -217.25 -13.375 C-216.92 -14.035 -216.59 -14.695 -216.25 -15.375 C-214.3515625 -15.91772461 -214.3515625 -15.91772461 -211.875 -16.33984375 C-206.2843147 -17.35823247 -200.77615857 -18.61670891 -195.25 -19.9375 C-194.31027344 -20.15857422 -193.37054688 -20.37964844 -192.40234375 -20.60742188 C-191.50644531 -20.82076172 -190.61054688 -21.03410156 -189.6875 -21.25390625 C-188.88183594 -21.4454126 -188.07617188 -21.63691895 -187.24609375 -21.83422852 C-185.19857522 -22.3183079 -185.19857522 -22.3183079 -183.25 -23.375 C-181.75456535 -23.56192933 -180.25278214 -23.6988637 -178.75 -23.8125 C-175.24355491 -24.09939096 -171.74995609 -24.42298101 -168.2578125 -24.84765625 C-110.27580479 -31.89417244 -53.40911475 -23.30200492 0 0 Z M-298.25 46.625 C-298.77126465 47.04475098 -299.2925293 47.46450195 -299.82958984 47.89697266 C-314.95683832 60.13285076 -329.544348 74.05469572 -341.25 89.625 C-342.15995654 90.77332707 -343.07153927 91.92036659 -343.984375 93.06640625 C-368.88967727 124.7584852 -385.36722569 162.99690546 -392.25 202.625 C-392.48541504 203.95241211 -392.48541504 203.95241211 -392.72558594 205.30664062 C-394.90097353 218.13441001 -395.52526118 230.99004437 -395.81982422 243.97338867 C-395.84016212 244.82028838 -395.86050003 245.66718808 -395.88145423 246.53975141 C-396.44381841 270.447113 -396.39675784 294.35942166 -396.3843255 318.27194619 C-396.38200211 324.17077113 -396.38380334 330.06959421 -396.3852527 335.96841922 C-396.38807405 348.3760388 -396.38487516 360.78365089 -396.37945233 373.19126924 C-396.37499907 383.7031188 -396.37575463 394.21495728 -396.38037109 404.72680664 C-396.38579744 417.08762597 -396.38778773 429.44843877 -396.38475883 441.80925912 C-396.38321094 448.29536568 -396.38290374 454.78146621 -396.38629532 461.2675724 C-396.39789186 487.10844288 -396.29668576 512.94114087 -395.81591797 538.77807617 C-395.79730658 539.8410047 -395.77869519 540.90393323 -395.75951982 541.99907172 C-394.54188162 609.58250806 -372.68669593 673.19358912 -325.90234375 722.78515625 C-323.85476699 724.9774807 -321.90282596 727.18463724 -320 729.5 C-317.41701644 732.56214573 -314.53094083 735.11777106 -311.4765625 737.703125 C-309.93857336 739.03065247 -308.43478607 740.39847943 -306.9609375 741.796875 C-292.67614958 755.32983198 -276.28362928 765.90787858 -259.25 775.625 C-258.62270996 775.99286621 -257.99541992 776.36073242 -257.34912109 776.73974609 C-198.97683262 810.95234754 -122.21841921 818.11150011 -57.25 801.625 C-42.04871452 797.54926083 -27.34058858 792.67029429 -13.25 785.625 C-12.06277344 785.08488281 -10.87554688 784.54476562 -9.65234375 783.98828125 C-2.47738407 780.70561996 4.48137926 777.50733418 10.9296875 772.91015625 C12.75 771.625 12.75 771.625 16 769.8125 C33.40990317 760.04694512 48.5139099 746.44160351 62.75 732.625 C63.30413574 732.08746094 63.85827148 731.54992187 64.42919922 730.99609375 C69.79252009 725.76815119 75.11148421 720.51716871 79.75 714.625 C79.75 713.965 79.75 713.305 79.75 712.625 C80.41 712.625 81.07 712.625 81.75 712.625 C83.36066659 710.76466487 84.84359478 708.90587195 86.3125 706.9375 C86.9785022 706.05553955 86.9785022 706.05553955 87.65795898 705.15576172 C95.73071861 694.3892119 103.08774027 683.30902155 109.75 671.625 C110.14832031 670.93229004 110.54664063 670.23958008 110.95703125 669.52587891 C136.15345877 625.24215769 143.10176097 576.02172247 143.01144934 525.86221564 C143.00685288 522.07139066 143.0139436 518.28058273 143.01940918 514.48976135 C143.02822969 507.09488724 143.02641422 499.70005408 143.0205839 492.30517847 C143.01603783 486.28616111 143.01546712 480.26715511 143.01763153 474.24813652 C143.017938 473.3862945 143.01824446 472.52445247 143.01856022 471.63649402 C143.01919977 469.88480159 143.0198482 468.13310916 143.0205054 466.38141673 C143.02618727 450.01555355 143.0196848 433.64971289 143.00890467 417.2838534 C142.99997272 403.29151926 143.00152245 389.29921831 143.01074219 375.30688477 C143.02148566 358.99479628 143.02563648 342.68272746 143.01951766 326.37063593 C143.01888067 324.62565037 143.01825193 322.88066481 143.01763153 321.13567924 C143.01732298 320.27747473 143.01701443 319.41927021 143.01669653 318.5350595 C143.01498165 312.53532657 143.01785842 306.53560629 143.02259064 300.53587532 C143.02824511 293.20687667 143.02658842 285.87792076 143.01602915 278.5489269 C143.01083283 274.82143531 143.0086101 271.09401454 143.01532745 267.36652374 C143.04944897 246.72591213 142.57466795 226.1428614 139.0625 205.75 C138.89588867 204.77498535 138.72927734 203.7999707 138.55761719 202.79541016 C131.36508206 163.00184252 131.36508206 163.00184252 111.75 128.625 C111.75 127.965 111.75 127.305 111.75 126.625 C103.42264054 109.94512289 92.20203166 94.44443827 79.75 80.625 C79.30446777 80.12452148 78.85893555 79.62404297 78.39990234 79.10839844 C42.60666515 38.94887575 -3.2160018 11.26850302 -55.25 -2.375 C-56.68279297 -2.76171875 -56.68279297 -2.76171875 -58.14453125 -3.15625 C-65.62206198 -5.11676201 -73.1006829 -6.41221315 -80.75 -7.5 C-81.88308594 -7.66886719 -83.01617188 -7.83773437 -84.18359375 -8.01171875 C-98.37732752 -10.07655745 -112.30596135 -10.58090716 -126.625 -10.5625 C-128.03094925 -10.56109512 -128.03094925 -10.56109512 -129.46530151 -10.55966187 C-190.54533923 -10.42720401 -250.52581901 7.60022042 -298.25 46.625 Z " fill="#D2D2D3" transform="translate(642.25,103.375)"/>
<path d="M0 0 C0 1.32 0 2.64 0 4 C0.99 4.66 1.98 5.32 3 6 C-1.27062331 6.48105039 -5.54153541 6.95948991 -9.8125 7.4375 C-11.00810547 7.57220703 -12.20371094 7.70691406 -13.43554688 7.84570312 C-14.61826172 7.97783203 -15.80097656 8.10996094 -17.01953125 8.24609375 C-18.77450928 8.44307861 -18.77450928 8.44307861 -20.56494141 8.64404297 C-24.70226121 9.07277163 -28.84380286 9.3794113 -32.99487305 9.64086914 C-33.65656494 9.75938232 -34.31825684 9.87789551 -35 10 C-35.33 10.66 -35.66 11.32 -36 12 C-38.375 11.6875 -38.375 11.6875 -41 11 C-41.66 10.01 -42.32 9.02 -43 8 C-42.67 7.01 -42.34 6.02 -42 5 C-39.015625 4.0859375 -39.015625 4.0859375 -35.25 3.375 C-34.01765625 3.13523437 -32.7853125 2.89546875 -31.515625 2.6484375 C-29.77539062 2.32746094 -29.77539062 2.32746094 -28 2 C-26.74703125 1.72736328 -26.74703125 1.72736328 -25.46875 1.44921875 C-17.13640674 -0.06695131 -8.449709 -0.14568464 0 0 Z " fill="#DBDCDD" transform="translate(611,527)"/>
<path d="M0 0 C3.6006738 0.66074893 7.02519339 1.57182415 10.515625 2.671875 C56.013811 16.76725745 104.55616668 22.07726353 151.62402344 12.38037109 C154.12081097 11.98065932 156.47574565 11.93540515 159 12 C155.74453229 13.8647872 152.82472935 14.49570849 149.125 15.03515625 C147.39830078 15.28942383 147.39830078 15.28942383 145.63671875 15.54882812 C144.43660156 15.71833984 143.23648438 15.88785156 142 16.0625 C140.83082031 16.23587891 139.66164063 16.40925781 138.45703125 16.58789062 C96.63409548 22.64548565 53.09104185 18.98826296 12.90234375 5.84741211 C9.94614903 4.98427686 7.04463726 4.44589459 4 4 C4 3.34 4 2.68 4 2 C2.68 1.34 1.36 0.68 0 0 Z " fill="#A4A5A5" transform="translate(417,895)"/>
<path d="M0 0 C0.66 0 1.32 0 2 0 C2.09796875 1.17433594 2.1959375 2.34867188 2.296875 3.55859375 C3.13222156 12.77631063 4.33333951 21.621975 6.76660156 30.56616211 C8.36245699 36.60687462 8.36245699 36.60687462 7 40 C4.48144994 31.05058909 2.30549022 22.22431907 1 13 C-1.31377205 16.47065807 -1.88984473 19.67040155 -2.625 23.6875 C-2.7590625 24.38939453 -2.893125 25.09128906 -3.03125 25.81445312 C-3.3602717 27.54181706 -3.68095312 29.27076591 -4 31 C-4.33 31 -4.66 31 -5 31 C-4.53736765 23.90098638 -3.59363523 16.8996805 -2.5 9.875 C-2.36940186 9.02123779 -2.23880371 8.16747559 -2.10424805 7.2878418 C-1.1223749 1.1223749 -1.1223749 1.1223749 0 0 Z " fill="#ACADAE" transform="translate(572,540)"/>
<path d="M0 0 C0.33 0.66 0.66 1.32 1 2 C1.66 2 2.32 2 3 2 C4.7983378 5.53831716 6.58746614 9.08121413 8.375 12.625 C8.88289063 13.62402344 9.39078125 14.62304688 9.9140625 15.65234375 C10.40390625 16.62558594 10.89375 17.59882812 11.3984375 18.6015625 C11.84880371 19.49182129 12.29916992 20.38208008 12.76318359 21.29931641 C14 24 14 24 15.03759766 27.27490234 C15.69328103 30.1359959 15.69328103 30.1359959 18 31 C18.625 34.0625 18.625 34.0625 19 37 C16.58965863 34.78694012 15.04942476 32.58117536 13.4765625 29.71875 C13.01483643 28.88142334 12.55311035 28.04409668 12.07739258 27.18139648 C11.59810303 26.29653564 11.11881348 25.4116748 10.625 24.5 C10.13475342 23.60031494 9.64450684 22.70062988 9.1394043 21.77368164 C0 4.86845157 0 4.86845157 0 0 Z " fill="#C5C5C6" transform="translate(253,755)"/>
<path d="M0 0 C2.24331211 2.24331211 2.49729812 3.27501513 3.21875 6.296875 C3.42798096 7.16739502 3.63721191 8.03791504 3.8527832 8.93481445 C4.06636475 9.86382568 4.27994629 10.79283691 4.5 11.75 C4.72067139 12.69125732 4.94134277 13.63251465 5.16870117 14.60229492 C6.86936436 22.02884086 8.14702716 29.42509193 9 37 C9.99 36.34 10.98 35.68 12 35 C11.67 40.28 11.34 45.56 11 51 C10.01 51 9.02 51 8 51 C7.93530518 50.29206299 7.87061035 49.58412598 7.80395508 48.85473633 C6.39164375 33.84544317 4.41309067 19.39029835 0.41137695 4.83984375 C0 3 0 3 0 0 Z " fill="#A8A7A8" transform="translate(563,693)"/>
<path d="M0 0 C5.97989106 0.56262416 10.96855566 2.33818614 16.5 4.625 C17.36915039 4.97820312 18.23830078 5.33140625 19.13378906 5.6953125 C26.87755406 8.8757367 34.46857009 12.34839762 42 16 C39 17 39 17 37.16796875 16.2578125 C36.18763672 15.69707031 36.18763672 15.69707031 35.1875 15.125 C32.67906048 13.78443902 31.02737113 13.00425773 28.1875 12.5625 C23.09434148 11.66370732 18.63534646 9.23519376 14 7 C14 6.34 14 5.68 14 5 C13.360625 4.896875 12.72125 4.79375 12.0625 4.6875 C7.93522674 3.76096927 3.99357051 2.38339371 0 1 C0 0.67 0 0.34 0 0 Z " fill="#B8B9B9" transform="translate(607,91)"/>
<path d="M0 0 C2.97 0.495 2.97 0.495 6 1 C5.0625 2.9375 5.0625 2.9375 3 5 C0.03324059 5.72604239 -2.95800195 5.8237867 -6 6 C-7.85487721 6.18033528 -9.70908804 6.36768113 -11.5625 6.5625 C-13.04161704 6.70883578 -14.52076554 6.85485591 -16 7 C-16 7.66 -16 8.32 -16 9 C-19.28696233 9.79953138 -20.71023192 10.09658936 -24 9 C-25.32 8.67 -26.64 8.34 -28 8 C-18.76 5.69 -9.52 3.38 0 1 C0 0.67 0 0.34 0 0 Z " fill="#C1C1C2" transform="translate(457,80)"/>
<path d="M0 0 C2.59029313 2.59029313 3.55521941 5.518081 4.85546875 8.87109375 C5.12136307 9.54922623 5.38725739 10.2273587 5.66120911 10.92604065 C6.22116448 12.35985249 6.77828029 13.79477606 7.33276367 15.23071289 C8.18445658 17.4296424 9.05165926 19.62202237 9.91992188 21.81445312 C10.46189656 23.20796071 11.00294372 24.60182946 11.54296875 25.99609375 C11.80434128 26.65242294 12.06571381 27.30875214 12.33500671 27.98497009 C14.11448993 32.6565302 14.11448993 32.6565302 13 36 C13 35.34 13 34.68 13 34 C12.34 34 11.68 34 11 34 C9.69950899 30.83688775 8.41126194 27.66892214 7.125 24.5 C6.76019531 23.613125 6.39539063 22.72625 6.01953125 21.8125 C3.11596321 14.63276812 1.15215069 7.68100463 0 0 Z " fill="#C2C2C2" transform="translate(741,680)"/>
<path d="M0 0 C0.495 2.475 0.495 2.475 1 5 C0.505 4.01 0.505 4.01 0 3 C-9.76338236 2.78489488 -19.06442908 3.02786967 -28.73046875 4.5625 C-31.86646227 4.98213115 -34.84086319 5.07670135 -38 5 C-34.89663549 3.24000474 -32.24081449 2.59005816 -28.7109375 2.1484375 C-27.68613281 2.01953125 -26.66132812 1.890625 -25.60546875 1.7578125 C-24.53941406 1.63148438 -23.47335937 1.50515625 -22.375 1.375 C-21.33214844 1.2409375 -20.28929687 1.106875 -19.21484375 0.96875 C-12.77550726 0.18091607 -6.48555797 -0.17889948 0 0 Z " fill="#B1B1B2" transform="translate(614,533)"/>
<path d="M0 0 C0.33 0 0.66 0 1 0 C1.91657981 5.38490641 2.11138159 10.54230189 2 16 C1.34 15.67 0.68 15.34 0 15 C-1.32 19.95 -2.64 24.9 -4 30 C-4.33 30 -4.66 30 -5 30 C-4.25826663 23.44151546 -3.14229492 16.9880122 -1.9375 10.5 C-1.75123047 9.48679687 -1.56496094 8.47359375 -1.37304688 7.4296875 C-0.91738299 4.95274538 -0.4596565 2.47620374 0 0 Z " fill="#E2E3E4" transform="translate(572,546)"/>
<path d="M0 0 C2.375 2.8125 2.375 2.8125 4 6 C3.67 6.99 3.34 7.98 3 9 C0.48916886 7.74458443 0.12874554 6.49936512 -1 4 C-5.83256305 4.41421969 -7.82679218 6.46413986 -11 10 C-11.33 9.34 -11.66 8.68 -12 8 C-11.21366078 6.85050412 -10.42073742 5.70551011 -9.625 4.5625 C-9.18414063 3.92441406 -8.74328125 3.28632813 -8.2890625 2.62890625 C-5.96088356 -0.31306532 -3.59333077 -0.59888846 0 0 Z " fill="#C5C6C5" transform="translate(555,206)"/>
<path d="M0 0 C2.35953094 2.35953094 2.49141413 3.77895617 3 7 C3.66 7 4.32 7 5 7 C6 10 6 10 5 13 C-3.02770189 12.44636539 -10.33854067 10.34312056 -18 8 C-14.87826902 6.95942301 -14.10582494 7.00039657 -11.05859375 7.7421875 C-10.31029297 7.92136719 -9.56199219 8.10054687 -8.79101562 8.28515625 C-7.62602539 8.57712891 -7.62602539 8.57712891 -6.4375 8.875 C-5.65697266 9.06191406 -4.87644531 9.24882813 -4.07226562 9.44140625 C1.68392857 10.84196429 1.68392857 10.84196429 4 12 C3.71125 11.38511719 3.4225 10.77023437 3.125 10.13671875 C2.75375 9.32847656 2.3825 8.52023437 2 7.6875 C1.443125 6.48673828 1.443125 6.48673828 0.875 5.26171875 C0 3 0 3 0 0 Z " fill="#B2B2B3" transform="translate(648,623)"/>
<path d="M0 0 C3.5947979 3.5947979 4.85876717 8.75967491 6.6875 13.4375 C7.11611328 14.50033203 7.54472656 15.56316406 7.98632812 16.65820312 C8.38658203 17.67720703 8.78683594 18.69621094 9.19921875 19.74609375 C9.56877686 20.68122803 9.93833496 21.6163623 10.3190918 22.57983398 C11 25 11 25 10 28 C9.16235732 26.04350603 8.33000941 24.08474444 7.5 22.125 C6.80390625 20.48917969 6.80390625 20.48917969 6.09375 18.8203125 C5 16 5 16 5 14 C4.34 14 3.68 14 3 14 C1.56976822 9.32790951 0.59619955 4.86896303 0 0 Z " fill="#B4B5B5" transform="translate(728,647)"/>
<path d="M0 0 C2.83374881 3.20336822 3.5205537 5.78087253 4 10 C4.66 10 5.32 10 6 10 C8.62875405 15.37180176 9.6083965 20.04492601 10 26 C7.78936555 23.78936555 7.16206137 22.21618699 6.0546875 19.31640625 C5.70019531 18.38892578 5.34570312 17.46144531 4.98046875 16.50585938 C4.61566406 15.53455078 4.25085938 14.56324219 3.875 13.5625 C3.50246094 12.59505859 3.12992188 11.62761719 2.74609375 10.63085938 C0 3.38338484 0 3.38338484 0 0 Z " fill="#BBBCBC" transform="translate(576,436)"/>
<path d="M0 0 C3.65235372 0.67916873 7.17491255 1.58085663 10.73828125 2.62890625 C11.80498047 2.94150391 12.87167969 3.25410156 13.97070312 3.57617188 C15.62489258 4.0644043 15.62489258 4.0644043 17.3125 4.5625 C18.43462891 4.89185547 19.55675781 5.22121094 20.71289062 5.56054688 C23.47582688 6.37179199 26.23816741 7.18500698 29 8 C29 8.66 29 9.32 29 10 C28.24976563 9.80664062 27.49953125 9.61328125 26.7265625 9.4140625 C20.86122881 7.92187433 15.00793484 6.54335726 9.05859375 5.4296875 C7 5 7 5 4 4 C4 3.34 4 2.68 4 2 C2.68 1.34 1.36 0.68 0 0 Z " fill="#B0B0B1" transform="translate(417,895)"/>
<path d="M0 0 C0.69937202 1.4317616 1.38412718 2.87067032 2.0625 4.3125 C2.44535156 5.11300781 2.82820312 5.91351562 3.22265625 6.73828125 C4 9 4 9 3 12 C2.32880451 10.5437455 1.66318193 9.08492133 1 7.625 C0.62875 6.81289063 0.2575 6.00078125 -0.125 5.1640625 C-1 3 -1 3 -1 1 C-1.66386719 1.31710937 -2.32773437 1.63421875 -3.01171875 1.9609375 C-6.60924343 3.21184151 -10.0439801 3.45190052 -13.8125 3.625 C-14.85180664 3.68300781 -14.85180664 3.68300781 -15.91210938 3.7421875 C-17.60767015 3.83573568 -19.30379712 3.91892364 -21 4 C-17.80734232 1.87156155 -15.92624957 1.46755654 -12.1875 0.875 C-11.17042969 0.70742188 -10.15335938 0.53984375 -9.10546875 0.3671875 C-6.03757182 0.00444245 -3.0859734 -0.06457941 0 0 Z " fill="#B0B0B1" transform="translate(656,641)"/>
<path d="M0 0 C3.14166231 3.62426706 4.60604186 7.62939929 6.25 12.0625 C6.53101563 12.78244141 6.81203125 13.50238281 7.1015625 14.24414062 C9.12265181 19.63204456 9.12265181 19.63204456 8 23 C7.67 21.35 7.34 19.7 7 18 C6.34 18 5.68 18 5 18 C2.13609892 12.14202052 0.9877064 6.42590164 0 0 Z " fill="#BCBDBD" transform="translate(708,596)"/>
<path d="M0 0 C1 3 1 3 0.37915039 4.80932617 C0.03875732 5.46392822 -0.30163574 6.11853027 -0.65234375 6.79296875 C-1.01650391 7.50517578 -1.38066406 8.21738281 -1.75585938 8.95117188 C-2.14580078 9.68916016 -2.53574219 10.42714844 -2.9375 11.1875 C-3.51661133 12.31188477 -3.51661133 12.31188477 -4.10742188 13.45898438 C-5.06271757 15.31060689 -6.03021577 17.15592452 -7 19 C-8.41692112 14.57685158 -7.0927929 12.3934549 -5.0625 8.25 C-4.21365234 6.49429688 -4.21365234 6.49429688 -3.34765625 4.703125 C-2.90292969 3.81109375 -2.45820313 2.9190625 -2 2 C-1.34 2 -0.68 2 0 2 C0 1.34 0 0.68 0 0 Z " fill="#C4C4C4" transform="translate(434,663)"/>
<path d="M0 0 C3 1 3 1 4.640625 4.2734375 C5.18882687 5.63595866 5.72482909 7.00343713 6.25 8.375 C6.53101563 9.06078125 6.81203125 9.7465625 7.1015625 10.453125 C9.12917132 15.61248605 9.12917132 15.61248605 8 19 C6.5393715 16.35261084 6 15.10551666 6 12 C5.34 12 4.68 12 4 12 C3.32645501 10.56570999 2.66140299 9.12742943 2 7.6875 C1.62875 6.88699219 1.2575 6.08648437 0.875 5.26171875 C0 3 0 3 0 0 Z " fill="#C3C4C4" transform="translate(640,425)"/>
<path d="M0 0 C0.8353125 0.37125 0.8353125 0.37125 1.6875 0.75 C-1.12843228 3.1730115 -3.74386134 5.41152461 -6.9375 7.3125 C-9.4707727 8.84579663 -11.30140932 10.58993964 -13.3125 12.75 C-13.9725 12.42 -14.6325 12.09 -15.3125 11.75 C-3.45393332 -0.3733982 -3.45393332 -0.3733982 0 0 Z " fill="#C0C1C1" transform="translate(494.3125,569.25)"/>
<path d="M0 0 C0.33 0.66 0.66 1.32 1 2 C-0.24125182 4.61161731 -1.5310524 7.10501786 -2.9375 9.625 C-3.32357422 10.33140625 -3.70964844 11.0378125 -4.10742188 11.765625 C-5.06448696 13.51433651 -6.03134031 15.25768432 -7 17 C-8 15 -8 15 -7.29296875 12.7578125 C-6.92816406 11.88898437 -6.56335938 11.02015625 -6.1875 10.125 C-5.83042969 9.26132812 -5.47335937 8.39765625 -5.10546875 7.5078125 C-2.3036963 1.15184815 -2.3036963 1.15184815 0 0 Z " fill="#C3C2C3" transform="translate(772,766)"/>
<path d="M0 0 C0.33 0.66 0.66 1.32 1 2 C1.66 2 2.32 2 3 2 C3.86580287 3.93232821 4.71729941 5.87107194 5.5625 7.8125 C6.27599609 9.43091797 6.27599609 9.43091797 7.00390625 11.08203125 C8 14 8 14 7 17 C6.67 15.68 6.34 14.36 6 13 C5.34 13 4.68 13 4 13 C3.32694982 11.39850114 2.66177773 9.79368971 2 8.1875 C1.62875 7.29417969 1.2575 6.40085937 0.875 5.48046875 C0 3 0 3 0 0 Z " fill="#C5C5C5" transform="translate(575,258)"/>
<path d="M0 0 C3 1 3 1 4.203125 3.1796875 C4.54859375 4.06914062 4.8940625 4.95859375 5.25 5.875 C5.60578125 6.75929688 5.9615625 7.64359375 6.328125 8.5546875 C7 11 7 11 6 14 C3.2079853 12.60399265 2.99837067 10.99583616 1.875 8.125 C1.34519531 6.79855469 1.34519531 6.79855469 0.8046875 5.4453125 C0 3 0 3 0 0 Z " fill="#C9CACA" transform="translate(650,451)"/>
<path d="M0 0 C3.63559661 3.43361902 6.36113346 6.7973607 9 11 C8.67 11.66 8.34 12.32 8 13 C6.33333333 11.33333333 4.66666667 9.66666667 3 8 C2.401875 7.505 1.80375 7.01 1.1875 6.5 C-0.51035354 4.3553429 -0.21486964 2.65005894 0 0 Z " fill="#C4C4C4" transform="translate(748,193)"/>
<path d="M0 0 C0.66 0.33 1.32 0.66 2 1 C1.195625 1.763125 0.39125 2.52625 -0.4375 3.3125 C-3.16799024 5.79430898 -3.16799024 5.79430898 -4 9 C-6.5625 10.6875 -6.5625 10.6875 -9 12 C-9.66 11.34 -10.32 10.68 -11 10 C-5.555 5.05 -5.555 5.05 0 0 Z " fill="#BDBDBE" transform="translate(694,845)"/>
<path d="M0 0 C2.09375 0.20703125 2.09375 0.20703125 4.5 0.8125 C5.2940625 1.00457031 6.088125 1.19664063 6.90625 1.39453125 C9 2 9 2 11 3 C11 3.66 11 4.32 11 5 C11.66 5.33 12.32 5.66 13 6 C7.88634986 4.9318153 2.92772031 3.76892524 -2 2 C-1.34 1.34 -0.68 0.68 0 0 Z " fill="#C4C3C4" transform="translate(603,104)"/>
<path d="M0 0 C-2.34882224 2.34882224 -4.27123667 3.03503024 -7.375 4.1875 C-8.33148437 4.55230469 -9.28796875 4.91710937 -10.2734375 5.29296875 C-13.05285296 6.01370542 -14.35108103 5.98549829 -17 5 C-15.02 4.67 -13.04 4.34 -11 4 C-11 3.34 -11 2.68 -11 2 C-7.17010894 0.19769832 -4.21878192 -0.19622241 0 0 Z " fill="#B8B9B9" transform="translate(617,910)"/>
<path d="M0 0 C0.99 0.33 1.98 0.66 3 1 C3.87890625 2.8125 3.87890625 2.8125 4.5625 5 C5.20681284 7.14541038 5.20681284 7.14541038 6 9 C6.66 9.33 7.32 9.66 8 10 C8.625 13.0625 8.625 13.0625 9 16 C6.18368359 13.50506504 4.59044019 10.73437182 2.8125 7.4375 C2.28269531 6.46683594 1.75289063 5.49617187 1.20703125 4.49609375 C0 2 0 2 0 0 Z " fill="#B8B8B9" transform="translate(263,776)"/>
<path d="M0 0 C0.33 0.66 0.66 1.32 1 2 C-0.07674702 4.28258633 -1.19546116 6.4356434 -2.4375 8.625 C-2.77587891 9.23601562 -3.11425781 9.84703125 -3.46289062 10.4765625 C-4.30146192 11.988353 -5.14982577 13.49470399 -6 15 C-7.078724 11.763828 -7.09020478 11.08891354 -6 8 C-4.5625 5.25 -4.5625 5.25 -3 3 C-2.34 3 -1.68 3 -1 3 C-0.67 2.01 -0.34 1.02 0 0 Z " fill="#BBBBBB" transform="translate(280,222)"/>
<path d="M0 0 C3.12493704 3.12493704 3.95911133 5.91645015 4.125 10.3125 C4.08375 11.199375 4.0425 12.08625 4 13 C1.67759954 10.14978125 0.06093473 7.53644909 -1 4 C-0.625 1.6875 -0.625 1.6875 0 0 Z " fill="#CCCCCC" transform="translate(593,301)"/>
<path d="M0 0 C2.34917898 2.15341406 3.82443004 4.21667937 5.25 7.0625 C5.60578125 7.75472656 5.9615625 8.44695312 6.328125 9.16015625 C6.54984375 9.76730469 6.7715625 10.37445313 7 11 C6.67 11.66 6.34 12.32 6 13 C3.57206296 10.83049884 2.3943719 8.99994161 1.3125 5.9375 C1.06113281 5.24527344 0.80976562 4.55304688 0.55078125 3.83984375 C0 2 0 2 0 0 Z " fill="#BDBDBE" transform="translate(764,218)"/>
<path d="M0 0 C4.83766699 0.41465717 6.85646376 2.4198615 10 6 C10.33 6.66 10.66 7.32 11 8 C6.99698968 6.23867546 3.3971023 3.73867517 0 1 C0 0.67 0 0.34 0 0 Z " fill="#C1C0C1" transform="translate(669,137)"/>
<path d="M0 0 C0.66 0.33 1.32 0.66 2 1 C-0.72478774 4.36591427 -4.06856792 5.44226276 -8 7 C-8.66 6.34 -9.32 5.68 -10 5 C-8.38007835 4.13624104 -6.75388139 3.28424146 -5.125 2.4375 C-4.22007812 1.96183594 -3.31515625 1.48617187 -2.3828125 0.99609375 C-1.20332031 0.50302734 -1.20332031 0.50302734 0 0 Z " fill="#C4C4C4" transform="translate(388,104)"/>
<path d="M0 0 C0.33 0.66 0.66 1.32 1 2 C1.66 2 2.32 2 3 2 C4.80230168 5.82989106 5.19622241 8.78121808 5 13 C2.94876752 10.94876752 2.35852882 9.72994937 1.375 7.0625 C0.98441406 6.02802734 0.98441406 6.02802734 0.5859375 4.97265625 C0 3 0 3 0 0 Z " fill="#C0C1C1" transform="translate(627,569)"/>
<path d="M0 0 C0.33 0.66 0.66 1.32 1 2 C0.00390625 4.3828125 0.00390625 4.3828125 -1.4375 7.125 C-1.91058594 8.03507813 -2.38367188 8.94515625 -2.87109375 9.8828125 C-3.24363281 10.58148437 -3.61617188 11.28015625 -4 12 C-4.66 11.01 -5.32 10.02 -6 9 C-5.38245741 7.68397477 -4.75571258 6.37226444 -4.125 5.0625 C-3.77695312 4.33160156 -3.42890625 3.60070312 -3.0703125 2.84765625 C-2 1 -2 1 0 0 Z " fill="#C5C5C5" transform="translate(386,511)"/>
<path d="M0 0 C0.33 0.66 0.66 1.32 1 2 C-0.21484375 4.3828125 -0.21484375 4.3828125 -1.9375 7.125 C-2.50339844 8.03507812 -3.06929688 8.94515625 -3.65234375 9.8828125 C-4.09707031 10.58148438 -4.54179687 11.28015625 -5 12 C-6 10 -6 10 -5.546875 8.125 C-5.28390625 7.42375 -5.0209375 6.7225 -4.75 6 C-4.49734375 5.29875 -4.2446875 4.5975 -3.984375 3.875 C-3 2 -3 2 0 0 Z " fill="#C0C0C0" transform="translate(449,395)"/>
<path d="M0 0 C1.41750563 0.11509661 2.83401169 0.24253658 4.25 0.375 C5.03890625 0.44460937 5.8278125 0.51421875 6.640625 0.5859375 C9.085877 1.01507113 10.84836903 1.78600638 13 3 C13 3.66 13 4.32 13 5 C8.15340923 4.40895235 4.39251833 3.02055843 0 1 C0 0.67 0 0.34 0 0 Z " fill="#C0BFC0" transform="translate(616,110)"/>
<path d="M0 0 C0.33 0 0.66 0 1 0 C1.34833144 4.87664009 0.41685712 7.77050005 -2 12 C-2.66 11.67 -3.32 11.34 -4 11 C-3.52269162 9.5410574 -3.04308958 8.08286504 -2.5625 6.625 C-2.29566406 5.81289063 -2.02882813 5.00078125 -1.75390625 4.1640625 C-1 2 -1 2 0 0 Z " fill="#CBCACA" transform="translate(779,747)"/>
<path d="M0 0 C2.97 0.99 5.94 1.98 9 3 C9 3.66 9 4.32 9 5 C10.32 5.66 11.64 6.32 13 7 C7.92990529 6.52467862 4.02506742 3.95637706 0 1 C0 0.67 0 0.34 0 0 Z " fill="#BCBBBC" transform="translate(345,719)"/>
<path d="M0 0 C8 0.92307692 8 0.92307692 11 3 C11.33 3.99 11.66 4.98 12 6 C7.76570244 4.68938409 3.92592596 3.05643741 0 1 C0 0.67 0 0.34 0 0 Z " fill="#C2C2C3" transform="translate(639,120)"/>
<path d="M0 0 C2 2 2 2 2 5 C2.66 5 3.32 5 4 5 C5.66670026 8.52948291 6.13583456 10.28272326 5 14 C4.15973604 12.23244474 3.32801278 10.46082737 2.5 8.6875 C2.0359375 7.70136719 1.571875 6.71523438 1.09375 5.69921875 C0 3 0 3 0 0 Z " fill="#B7B7B8" transform="translate(681,708)"/>
<path d="M0 0 C0.66 0 1.32 0 2 0 C2 1.98 2 3.96 2 6 C1.34 6 0.68 6 0 6 C0 8.31 0 10.62 0 13 C-0.33 13 -0.66 13 -1 13 C-1.02686553 11.02090602 -1.04633375 9.04171029 -1.0625 7.0625 C-1.07410156 5.96035156 -1.08570313 4.85820313 -1.09765625 3.72265625 C-1 1 -1 1 0 0 Z " fill="#C1C3C4" transform="translate(572,540)"/>
<path d="M0 0 C0.33 0.66 0.66 1.32 1 2 C1.66 2 2.32 2 3 2 C5.125 9.625 5.125 9.625 4 13 C3.32694982 11.39850114 2.66177773 9.79368971 2 8.1875 C1.62875 7.29417969 1.2575 6.40085937 0.875 5.48046875 C0 3 0 3 0 0 Z " fill="#BABABB" transform="translate(523,297)"/>
<path d="M0 0 C0.53625 0.391875 1.0725 0.78375 1.625 1.1875 C-5 4.1875 -5 4.1875 -8.375 4.1875 C-8.375 3.5275 -8.375 2.8675 -8.375 2.1875 C-2.95961538 -1.0125 -2.95961538 -1.0125 0 0 Z " fill="#C2C2C2" transform="translate(625.375,905.8125)"/>
<path d="M0 0 C3.55780196 0.60990891 6.6828589 1.5783681 10 3 C9.67 3.66 9.34 4.32 9 5 C6.03 4.505 6.03 4.505 3 4 C2.67 3.01 2.34 2.02 2 1 C1.34 0.67 0.68 0.34 0 0 Z " fill="#C2C2C2" transform="translate(407,891)"/>
<path d="M0 0 C1.32 0.33 2.64 0.66 4 1 C-0.455 3.97 -0.455 3.97 -5 7 C-5.66 6.67 -6.32 6.34 -7 6 C-5.93106782 4.96409662 -4.84421512 3.94666058 -3.75 2.9375 C-3.14671875 2.36902344 -2.5434375 1.80054688 -1.921875 1.21484375 C-1.28765625 0.81394531 -0.6534375 0.41304687 0 0 Z " fill="#B3B4B4" transform="translate(666,883)"/>
<path d="M0 0 C2.27795022 2.27795022 3.05219877 3.93787293 4 7 C3.625 9.3125 3.625 9.3125 3 11 C0.60236815 8.60236815 0.65719414 7.66726502 0.375 4.375 C0.30023437 3.55773437 0.22546875 2.74046875 0.1484375 1.8984375 C0.09945312 1.27195312 0.05046875 0.64546875 0 0 Z " fill="#C3C3C3" transform="translate(626,385)"/>
<path d="M0 0 C0 3.44360632 -0.79591532 4.74795392 -2.5 7.6875 C-2.9640625 8.49574219 -3.428125 9.30398438 -3.90625 10.13671875 C-4.2671875 10.75160156 -4.628125 11.36648438 -5 12 C-6 10 -6 10 -5.29296875 7.87109375 C-4.92816406 7.06800781 -4.56335938 6.26492188 -4.1875 5.4375 C-3.83042969 4.63183594 -3.47335937 3.82617188 -3.10546875 2.99609375 C-2 1 -2 1 0 0 Z " fill="#B7B7B6" transform="translate(431,427)"/>
<path d="M0 0 C0.33 0 0.66 0 1 0 C2.20577428 4.94367454 1.6290678 8.20862412 0 13 C-0.33 13 -0.66 13 -1 13 C-1.02708567 11.39592672 -1.04643483 9.7917215 -1.0625 8.1875 C-1.07410156 7.29417969 -1.08570313 6.40085937 -1.09765625 5.48046875 C-1 3 -1 3 0 0 Z " fill="#C8C9CA" transform="translate(240,279)"/>
<path d="M0 0 C-1.45264038 0.8638129 -2.9123163 1.71580454 -4.375 2.5625 C-5.59316406 3.27599609 -5.59316406 3.27599609 -6.8359375 4.00390625 C-7.55007813 4.33261719 -8.26421875 4.66132812 -9 5 C-9.66 4.67 -10.32 4.34 -11 4 C-8.32997607 0.73663741 -4.08378642 -2.04189321 0 0 Z " fill="#B5B5B6" transform="translate(657,892)"/>
<path d="M0 0 C0.66 0.33 1.32 0.66 2 1 C0.35 2.98 -1.3 4.96 -3 7 C-4.32 6.67 -5.64 6.34 -7 6 C-4.69 4.02 -2.38 2.04 0 0 Z " fill="#BBBCBD" transform="translate(681,856)"/>
<path d="M0 0 C0.66 0.33 1.32 0.66 2 1 C-0.12780579 3.34058637 -2.11562221 4.70700306 -5 6 C-5.66 5.34 -6.32 4.68 -7 4 C-1.7265625 0.77734375 -1.7265625 0.77734375 0 0 Z " fill="#C3C3C4" transform="translate(529,545)"/>
<path d="M0 0 C0 3 0 3 -1.3125 4.38671875 C-2.875 5.59114583 -4.4375 6.79557292 -6 8 C-5.67 6.02 -5.34 4.04 -5 2 C-4.360625 1.855625 -3.72125 1.71125 -3.0625 1.5625 C-1.02454854 1.18992819 -1.02454854 1.18992819 0 0 Z " fill="#BBBBBC" transform="translate(309,182)"/>
<path d="M0 0 C1 2 1 2 0.44140625 3.9453125 C0.15136719 4.66460937 -0.13867188 5.38390625 -0.4375 6.125 C-0.72496094 6.84945313 -1.01242187 7.57390625 -1.30859375 8.3203125 C-1.53675781 8.87460937 -1.76492188 9.42890625 -2 10 C-2.66 9.67 -3.32 9.34 -4 9 C-2.94124926 5.59687262 -1.99097846 2.98646769 0 0 Z " fill="#BEBFC0" transform="translate(469,343)"/>
<path d="M0 0 C1.43088528 2.86177057 0.59991697 4.93375773 0 8 C-0.99 7.67 -1.98 7.34 -3 7 C-1.125 1.125 -1.125 1.125 0 0 Z " fill="#BDBDBE" transform="translate(478,327)"/>
<path d="M0 0 C2.26185454 2.26185454 3.03921617 3.96983561 4 7 C3.67 7.99 3.34 8.98 3 10 C3 9.34 3 8.68 3 8 C2.34 8 1.68 8 1 8 C-1.125 3.375 -1.125 3.375 0 0 Z " fill="#BBBCBC" transform="translate(778,246)"/>
<path d="M0 0 C2.26185454 2.26185454 3.03921617 3.96983561 4 7 C3.67 7.99 3.34 8.98 3 10 C3 9.34 3 8.68 3 8 C2.34 8 1.68 8 1 8 C-1.125 3.375 -1.125 3.375 0 0 Z " fill="#BBBBBB" transform="translate(562,222)"/>
<path d="M0 0 C0.66 0.33 1.32 0.66 2 1 C0.88333826 4.34998521 0.25305075 4.79340222 -2.5625 6.6875 C-3.20316406 7.12449219 -3.84382812 7.56148437 -4.50390625 8.01171875 C-4.99761719 8.33785156 -5.49132812 8.66398438 -6 9 C-4.47291037 5.56404834 -2.40072955 2.88087546 0 0 Z " fill="#B0B1B1" transform="translate(722,816)"/>
<path d="M0 0 C3.2542015 2.83430453 4.5206753 4.68607774 5 9 C2.5 6.75 2.5 6.75 0 4 C0 2.68 0 1.36 0 0 Z " fill="#C4C4C4" transform="translate(281,804)"/>
<path d="M0 0 C3.33333333 1.66666667 6.66666667 3.33333333 10 5 C7 6 7 6 4.4375 5.3125 C1.70124563 3.83913226 1.05041579 2.86477034 0 0 Z " fill="#BABABB" transform="translate(349,712)"/>
<path d="M0 0 C0.33 0.66 0.66 1.32 1 2 C-0.98 4.97 -0.98 4.97 -3 8 C-3.75 6.25 -3.75 6.25 -4 4 C-2.0625 1.75 -2.0625 1.75 0 0 Z " fill="#BFBFBF" transform="translate(421,689)"/>
<path d="M0 0 C0.33 0.66 0.66 1.32 1 2 C0.06421005 4.35981813 -0.93347808 6.69631264 -2 9 C-2.33 9 -2.66 9 -3 9 C-3.36923077 3.46153846 -3.36923077 3.46153846 -1.5 1.125 C-1.005 0.75375 -0.51 0.3825 0 0 Z " fill="#C2C2C2" transform="translate(377,530)"/>
<path d="M0 0 C0 4.24645065 -1.81750806 6.38524772 -4 10 C-4.33 9.34 -4.66 8.68 -5 8 C-2.51612903 1.25806452 -2.51612903 1.25806452 0 0 Z " fill="#BABBBA" transform="translate(502,303)"/>
<path d="M0 0 C0.66 0 1.32 0 2 0 C3.60355101 3.50776784 4.22036864 6.14354879 4 10 C1.7448078 7.7448078 1.02276532 5.9952413 0 3 C0 2.01 0 1.02 0 0 Z " fill="#C3C4C3" transform="translate(517,282)"/>
<path d="M0 0 C-1.28650706 0.69710731 -2.57940665 1.38242876 -3.875 2.0625 C-4.95394531 2.63677734 -4.95394531 2.63677734 -6.0546875 3.22265625 C-6.69664062 3.47917969 -7.33859375 3.73570312 -8 4 C-8.66 3.67 -9.32 3.34 -10 3 C-7.30922307 -0.25725628 -4.0224365 -2.01121825 0 0 Z " fill="#B6B6B6" transform="translate(644,899)"/>
<path d="M0 0 C2.15377564 2.62198774 3.40072174 4.64404172 4 8 C3.01 7.67 2.02 7.34 1 7 C-0.1875 3.9375 -0.1875 3.9375 -1 1 C-0.67 0.67 -0.34 0.34 0 0 Z " fill="#C1C2C2" transform="translate(275,768)"/>
<path d="M0 0 C-4.44 2.96 -4.44 2.96 -7 4 C-7.99 3.67 -8.98 3.34 -10 3 C-9.34 3 -8.68 3 -8 3 C-8 2.34 -8 1.68 -8 1 C-5.29120665 -0.35439668 -2.99066732 -0.06501451 0 0 Z " fill="#BFBFC0" transform="translate(551,545)"/>
<path d="M0 0 C1 2 1 2 0.25 5.0625 C-0.1625 6.031875 -0.575 7.00125 -1 8 C-1.99 8.33 -2.98 8.66 -4 9 C-2.94124926 5.59687262 -1.99097846 2.98646769 0 0 Z " fill="#BAB9BA" transform="translate(534,230)"/>
<path d="M0 0 C1.65 1.65 3.3 3.3 5 5 C4.67 5.66 4.34 6.32 4 7 C2.68 6.34 1.36 5.68 0 5 C0 3.35 0 1.7 0 0 Z " fill="#BEBEBE" transform="translate(748,193)"/>
<path d="M0 0 C4 1 4 1 4 1 Z " fill="#C2C3C3" transform="translate(576,904)"/>
<path d="M0 0 C0 3 0 3 0 3 Z " fill="#C6C7C8" transform="translate(676,701)"/>
<path d="M0 0 C3 1 3 1 3 1 Z " fill="#BBBBBB" transform="translate(556,927)"/>
<path d="M0 0 C0.99 0.495 0.99 0.495 2 1 C1.01 1.495 1.01 1.495 0 2 C0 1.34 0 0.68 0 0 Z " fill="#B7B7B8" transform="translate(568,925)"/>
<path d="M0 0 C3 1 3 1 3 1 Z " fill="#C6C6C6" transform="translate(752,725)"/>
<path d="" fill="#C7C7C8" transform="translate(0,0)"/>
<path d="M0 0 C0.33 0.66 0.66 1.32 1 2 C0.34 1.67 -0.32 1.34 -1 1 C-0.67 0.67 -0.34 0.34 0 0 Z " fill="#CDCECE" transform="translate(635,596)"/>
<path d="M0 0 C3 1 3 1 3 1 Z " fill="#C8C9C9" transform="translate(545,536)"/>
<path d="M0 0 C0.66 0 1.32 0 2 0 C1.67 0.66 1.34 1.32 1 2 C0.67 1.34 0.34 0.68 0 0 Z " fill="#C7C8C7" transform="translate(555,390)"/>
<path d="M0 0 C0.66 0 1.32 0 2 0 C1.67 0.66 1.34 1.32 1 2 C0.67 1.34 0.34 0.68 0 0 Z " fill="#CBCCCC" transform="translate(531,326)"/>
<path d="M0 0 C3 1 3 1 3 1 Z " fill="#B8BABA" transform="translate(400,96)"/>
<path d="M0 0 C3 1 3 1 3 1 Z " fill="#C4C5C5" transform="translate(539,95)"/>
<path d="M0 0 C3 1 3 1 3 1 Z " fill="#C6C6C6" transform="translate(520,94)"/>
<path d="M0 0 C2 1 2 1 2 1 Z " fill="#BCBBBA" transform="translate(475,927)"/>
<path d="M0 0 C2 1 2 1 2 1 Z " fill="#B8B9B9" transform="translate(468,926)"/>
<path d="M0 0 C2 1 2 1 2 1 Z " fill="#BCBDBE" transform="translate(464,925)"/>
<path d="M0 0 C2 1 2 1 2 1 Z " fill="#BABAB8" transform="translate(596,919)"/>
<path d="M0 0 C2 1 2 1 2 1 Z " fill="#BBBCBC" transform="translate(437,919)"/>
<path d="M0 0 C2 1 2 1 2 1 Z " fill="#BDBDBD" transform="translate(572,905)"/>
<path d="M0 0 C2 1 2 1 2 1 Z " fill="#C2C3C3" transform="translate(688,848)"/>
<path d="M0 0 C2 1 2 1 2 1 Z " fill="#BDBEBD" transform="translate(304,839)"/>
<path d="" fill="#BABCBB" transform="translate(0,0)"/>
<path d="" fill="#BDBDBF" transform="translate(0,0)"/>
<path d="" fill="#BEBDBE" transform="translate(0,0)"/>
<path d="" fill="#BBBBBB" transform="translate(0,0)"/>
<path d="" fill="#B9BBBC" transform="translate(0,0)"/>
<path d="" fill="#BEBEBF" transform="translate(0,0)"/>
<path d="M0 0 C2 1 2 1 2 1 Z " fill="#C5C5C5" transform="translate(705,725)"/>
<path d="M0 0 C2 1 2 1 2 1 Z " fill="#C7C8C8" transform="translate(376,717)"/>
<path d="" fill="#C4C5C6" transform="translate(0,0)"/>
<path d="" fill="#CBCDCD" transform="translate(0,0)"/>
<path d="M0 0 C2 1 2 1 2 1 Z " fill="#CBCCCC" transform="translate(504,647)"/>
<path d="M0 0 C2 1 2 1 2 1 Z " fill="#C8C8C9" transform="translate(499,646)"/>
<path d="M0 0 C2 1 2 1 2 1 Z " fill="#CFCFD0" transform="translate(641,645)"/>
<path d="M0 0 C2 1 2 1 2 1 Z " fill="#CED0D0" transform="translate(653,644)"/>
<path d="" fill="#D0D1D3" transform="translate(0,0)"/>
<path d="" fill="#CECFD0" transform="translate(0,0)"/>
<path d="" fill="#C7C6C6" transform="translate(0,0)"/>
<path d="" fill="#CCCED0" transform="translate(0,0)"/>
<path d="M0 0 C2 1 2 1 2 1 Z " fill="#CCCCCE" transform="translate(604,524)"/>
<path d="" fill="#CDCDCC" transform="translate(0,0)"/>
<path d="" fill="#C7C9CA" transform="translate(0,0)"/>
<path d="" fill="#C8C9C9" transform="translate(0,0)"/>
<path d="" fill="#C8CACB" transform="translate(0,0)"/>
<path d="" fill="#CDCCCC" transform="translate(0,0)"/>
<path d="" fill="#CACCCA" transform="translate(0,0)"/>
<path d="" fill="#CBCDCD" transform="translate(0,0)"/>
<path d="M0 0 C2 1 2 1 2 1 Z " fill="#CBCDCC" transform="translate(528,319)"/>
<path d="" fill="#C1C1C2" transform="translate(0,0)"/>
<path d="" fill="#C2C2C1" transform="translate(0,0)"/>
<path d="M0 0 C2 1 2 1 2 1 Z " fill="#C0C1C3" transform="translate(611,110)"/>
<path d="M0 0 C2 1 2 1 2 1 Z " fill="#C1C2C1" transform="translate(452,100)"/>
<path d="M0 0 C2 1 2 1 2 1 Z " fill="#C3C4C6" transform="translate(544,95)"/>
<path d="M0 0 C2 1 2 1 2 1 Z " fill="#C8C8CA" transform="translate(484,95)"/>
<path d="M0 0 C2 1 2 1 2 1 Z " fill="#C8C9C8" transform="translate(531,94)"/>
<path d="M0 0 C2 1 2 1 2 1 Z " fill="#BABABB" transform="translate(417,90)"/>
<path d="M0 0 C2 1 2 1 2 1 Z " fill="#BABBBA" transform="translate(432,85)"/>
<path d="M0 0 C2 1 2 1 2 1 Z " fill="#BBBCBC" transform="translate(574,80)"/>
<path d="M0 0 C2 1 2 1 2 1 Z " fill="#BCBCBB" transform="translate(453,80)"/>
<path d="M0 0 C2 1 2 1 2 1 Z " fill="#BCBCBE" transform="translate(484,76)"/>
<path d="" fill="#BABCBC" transform="translate(0,0)"/>
<path d="" fill="#BBB9BB" transform="translate(0,0)"/>
<path d="" fill="#BCBCBB" transform="translate(0,0)"/>
<path d="" fill="#BABABA" transform="translate(0,0)"/>
<path d="" fill="#B7B7B9" transform="translate(0,0)"/>
<path d="" fill="#BEBEBE" transform="translate(0,0)"/>
<path d="" fill="#BBBCBC" transform="translate(0,0)"/>
<path d="" fill="#BCBCBD" transform="translate(0,0)"/>
<path d="" fill="#B9B9BA" transform="translate(0,0)"/>
<path d="" fill="#B9BAB9" transform="translate(0,0)"/>
<path d="" fill="#BDBCBE" transform="translate(0,0)"/>
<path d="" fill="#BDBDBA" transform="translate(0,0)"/>
<path d="" fill="#BABDBA" transform="translate(0,0)"/>
<path d="" fill="#B6B5B6" transform="translate(0,0)"/>
<path d="" fill="#B7B6B8" transform="translate(0,0)"/>
<path d="" fill="#B8B9B8" transform="translate(0,0)"/>
<path d="" fill="#BAB8B9" transform="translate(0,0)"/>
<path d="" fill="#BBBEBF" transform="translate(0,0)"/>
<path d="" fill="#C1C1C2" transform="translate(0,0)"/>
<path d="" fill="#BEBDBC" transform="translate(0,0)"/>
<path d="" fill="#BDBEBF" transform="translate(0,0)"/>
<path d="" fill="#BCBEBB" transform="translate(0,0)"/>
<path d="" fill="#BBBBBB" transform="translate(0,0)"/>
<path d="" fill="#C4C6C6" transform="translate(0,0)"/>
<path d="" fill="#BAB9BA" transform="translate(0,0)"/>
<path d="" fill="#B9B9BA" transform="translate(0,0)"/>
<path d="" fill="#BFBFC1" transform="translate(0,0)"/>
<path d="" fill="#C2C2C2" transform="translate(0,0)"/>
<path d="" fill="#C2C1C1" transform="translate(0,0)"/>
<path d="" fill="#BEC0C2" transform="translate(0,0)"/>
<path d="" fill="#B4B4B3" transform="translate(0,0)"/>
<path d="" fill="#B6B5B5" transform="translate(0,0)"/>
<path d="" fill="#BABABA" transform="translate(0,0)"/>
<path d="" fill="#BBBABD" transform="translate(0,0)"/>
<path d="" fill="#BBB9BB" transform="translate(0,0)"/>
<path d="" fill="#BEC0C0" transform="translate(0,0)"/>
<path d="" fill="#BEBFC0" transform="translate(0,0)"/>
<path d="" fill="#BCBDBD" transform="translate(0,0)"/>
<path d="" fill="#BFBFBF" transform="translate(0,0)"/>
<path d="" fill="#BDC0C0" transform="translate(0,0)"/>
<path d="" fill="#BEBEBF" transform="translate(0,0)"/>
<path d="" fill="#C0C2C0" transform="translate(0,0)"/>
<path d="" fill="#C0C2C3" transform="translate(0,0)"/>
<path d="" fill="#C2C2C1" transform="translate(0,0)"/>
<path d="" fill="#BEBEBD" transform="translate(0,0)"/>
<path d="" fill="#C1C2C1" transform="translate(0,0)"/>
<path d="" fill="#C3C3C3" transform="translate(0,0)"/>
<path d="" fill="#C3C1C2" transform="translate(0,0)"/>
<path d="" fill="#C3C3C3" transform="translate(0,0)"/>
<path d="" fill="#BDBDBD" transform="translate(0,0)"/>
<path d="" fill="#BCBABC" transform="translate(0,0)"/>
<path d="" fill="#C1C2C4" transform="translate(0,0)"/>
<path d="" fill="#BBBBBB" transform="translate(0,0)"/>
<path d="" fill="#BBB9BB" transform="translate(0,0)"/>
<path d="" fill="#C6C7C5" transform="translate(0,0)"/>
<path d="" fill="#BEBFC0" transform="translate(0,0)"/>
<path d="" fill="#C4C4C5" transform="translate(0,0)"/>
<path d="" fill="#BBBCBC" transform="translate(0,0)"/>
<path d="" fill="#C8C9C8" transform="translate(0,0)"/>
<path d="" fill="#C2C4C3" transform="translate(0,0)"/>
<path d="" fill="#BABABB" transform="translate(0,0)"/>
<path d="" fill="#BCBDBD" transform="translate(0,0)"/>
<path d="" fill="#C2C4C2" transform="translate(0,0)"/>
<path d="" fill="#C1C0C1" transform="translate(0,0)"/>
<path d="" fill="#BCBDBB" transform="translate(0,0)"/>
<path d="" fill="#CAC8C8" transform="translate(0,0)"/>
<path d="" fill="#BEBEBF" transform="translate(0,0)"/>
<path d="" fill="#C9C9C7" transform="translate(0,0)"/>
<path d="" fill="#C5C7C7" transform="translate(0,0)"/>
<path d="" fill="#BCBBBA" transform="translate(0,0)"/>
<path d="" fill="#C9CACA" transform="translate(0,0)"/>
<path d="" fill="#C1BFBF" transform="translate(0,0)"/>
<path d="" fill="#BABABC" transform="translate(0,0)"/>
<path d="" fill="#BBBBBF" transform="translate(0,0)"/>
<path d="" fill="#A5A6A8" transform="translate(0,0)"/>
<path d="" fill="#A7A9AB" transform="translate(0,0)"/>
<path d="" fill="#BDBBBC" transform="translate(0,0)"/>
<path d="" fill="#A7A8A8" transform="translate(0,0)"/>
<path d="" fill="#BFBDBF" transform="translate(0,0)"/>
<path d="" fill="#BBBBBF" transform="translate(0,0)"/>
<path d="" fill="#C5C9C9" transform="translate(0,0)"/>
<path d="" fill="#BEBFBF" transform="translate(0,0)"/>
<path d="" fill="#C1C2BF" transform="translate(0,0)"/>
<path d="" fill="#BDBFBF" transform="translate(0,0)"/>
<path d="" fill="#C5C9C7" transform="translate(0,0)"/>
<path d="" fill="#C5C6C5" transform="translate(0,0)"/>
<path d="" fill="#C6C5C6" transform="translate(0,0)"/>
<path d="" fill="#C6C5C4" transform="translate(0,0)"/>
<path d="" fill="#C5C4C4" transform="translate(0,0)"/>
<path d="" fill="#C4C1C1" transform="translate(0,0)"/>
<path d="" fill="#C4C6C5" transform="translate(0,0)"/>
<path d="" fill="#CBCACB" transform="translate(0,0)"/>
<path d="" fill="#BCBCBC" transform="translate(0,0)"/>
<path d="" fill="#C4C5C6" transform="translate(0,0)"/>
<path d="" fill="#C0C1C2" transform="translate(0,0)"/>
<path d="" fill="#BCBDBE" transform="translate(0,0)"/>
<path d="" fill="#C7C7C8" transform="translate(0,0)"/>
<path d="" fill="#C1C1C3" transform="translate(0,0)"/>
<path d="" fill="#C6C7C8" transform="translate(0,0)"/>
<path d="" fill="#BDBDBC" transform="translate(0,0)"/>
<path d="" fill="#C7C7C6" transform="translate(0,0)"/>
<path d="" fill="#C7C7C6" transform="translate(0,0)"/>
<path d="" fill="#BCBEBE" transform="translate(0,0)"/>
<path d="" fill="#C8C7C9" transform="translate(0,0)"/>
<path d="" fill="#CCCCCC" transform="translate(0,0)"/>
<path d="" fill="#BFBDC0" transform="translate(0,0)"/>
<path d="" fill="#C1C1C0" transform="translate(0,0)"/>
<path d="" fill="#C1C1C3" transform="translate(0,0)"/>
<path d="" fill="#CACACB" transform="translate(0,0)"/>
<path d="" fill="#C8C7C8" transform="translate(0,0)"/>
<path d="" fill="#C0C0BF" transform="translate(0,0)"/>
<path d="" fill="#C9CCCA" transform="translate(0,0)"/>
<path d="" fill="#C5CAC8" transform="translate(0,0)"/>
<path d="" fill="#CCCDCD" transform="translate(0,0)"/>
<path d="" fill="#C2C1C1" transform="translate(0,0)"/>
<path d="" fill="#CECFD0" transform="translate(0,0)"/>
<path d="" fill="#CECDCE" transform="translate(0,0)"/>
<path d="" fill="#C4C6C6" transform="translate(0,0)"/>
<path d="" fill="#D0CECF" transform="translate(0,0)"/>
<path d="" fill="#CACCCE" transform="translate(0,0)"/>
<path d="" fill="#C8C8CA" transform="translate(0,0)"/>
<path d="" fill="#C9CBCB" transform="translate(0,0)"/>
<path d="" fill="#C9CACB" transform="translate(0,0)"/>
<path d="" fill="#CCCBCE" transform="translate(0,0)"/>
<path d="" fill="#C5C5C5" transform="translate(0,0)"/>
<path d="" fill="#BABBBC" transform="translate(0,0)"/>
<path d="" fill="#CFCED1" transform="translate(0,0)"/>
<path d="" fill="#CAC9CB" transform="translate(0,0)"/>
<path d="" fill="#D0D2D1" transform="translate(0,0)"/>
<path d="" fill="#C3C3C4" transform="translate(0,0)"/>
<path d="" fill="#C8C9C9" transform="translate(0,0)"/>
<path d="" fill="#C8C9C8" transform="translate(0,0)"/>
<path d="" fill="#C6C6C8" transform="translate(0,0)"/>
<path d="" fill="#D5D5D6" transform="translate(0,0)"/>
<path d="" fill="#D2D3D2" transform="translate(0,0)"/>
<path d="" fill="#C8C9CB" transform="translate(0,0)"/>
<path d="" fill="#CFD1D1" transform="translate(0,0)"/>
<path d="" fill="#CECFCF" transform="translate(0,0)"/>
<path d="" fill="#CFD0D0" transform="translate(0,0)"/>
<path d="" fill="#CDCECC" transform="translate(0,0)"/>
<path d="" fill="#C5C4C5" transform="translate(0,0)"/>
<path d="" fill="#CCCECD" transform="translate(0,0)"/>
<path d="" fill="#CFD0D0" transform="translate(0,0)"/>
<path d="" fill="#C6C9C7" transform="translate(0,0)"/>
<path d="" fill="#CDCECE" transform="translate(0,0)"/>
<path d="" fill="#CDCDCE" transform="translate(0,0)"/>
<path d="" fill="#CCCECF" transform="translate(0,0)"/>
<path d="" fill="#CCCDCB" transform="translate(0,0)"/>
<path d="" fill="#CACACA" transform="translate(0,0)"/>
<path d="" fill="#CCCFCD" transform="translate(0,0)"/>
<path d="" fill="#CECFD0" transform="translate(0,0)"/>
<path d="" fill="#CACACA" transform="translate(0,0)"/>
<path d="" fill="#C2C4C3" transform="translate(0,0)"/>
<path d="" fill="#CFD0D0" transform="translate(0,0)"/>
<path d="" fill="#C1C0C1" transform="translate(0,0)"/>
<path d="" fill="#C8C8C9" transform="translate(0,0)"/>
<path d="" fill="#CACACE" transform="translate(0,0)"/>
<path d="" fill="#C2C2C4" transform="translate(0,0)"/>
<path d="" fill="#C7C8C7" transform="translate(0,0)"/>
<path d="" fill="#CBCBCA" transform="translate(0,0)"/>
<path d="" fill="#CECDCE" transform="translate(0,0)"/>
<path d="" fill="#C9CBCB" transform="translate(0,0)"/>
<path d="" fill="#CCCDCE" transform="translate(0,0)"/>
<path d="" fill="#CAC9C9" transform="translate(0,0)"/>
<path d="" fill="#C4C4C6" transform="translate(0,0)"/>
<path d="" fill="#C7C7C6" transform="translate(0,0)"/>
<path d="" fill="#CACBCC" transform="translate(0,0)"/>
<path d="" fill="#CECECF" transform="translate(0,0)"/>
<path d="" fill="#CBCCCA" transform="translate(0,0)"/>
<path d="" fill="#CCCCCC" transform="translate(0,0)"/>
<path d="" fill="#CCCBCD" transform="translate(0,0)"/>
<path d="" fill="#CBCBCA" transform="translate(0,0)"/>
<path d="" fill="#CCCCCE" transform="translate(0,0)"/>
<path d="" fill="#CCCCCB" transform="translate(0,0)"/>
<path d="" fill="#CAC9CA" transform="translate(0,0)"/>
<path d="" fill="#C4C4C4" transform="translate(0,0)"/>
<path d="" fill="#CBCBCD" transform="translate(0,0)"/>
<path d="" fill="#CBCBCC" transform="translate(0,0)"/>
<path d="" fill="#BFBFBF" transform="translate(0,0)"/>
<path d="" fill="#C8C9CA" transform="translate(0,0)"/>
<path d="" fill="#C1C0C1" transform="translate(0,0)"/>
<path d="" fill="#CACACB" transform="translate(0,0)"/>
<path d="" fill="#BDBEBB" transform="translate(0,0)"/>
<path d="" fill="#BEBEBE" transform="translate(0,0)"/>
<path d="" fill="#BEC1C0" transform="translate(0,0)"/>
<path d="" fill="#C6C5C7" transform="translate(0,0)"/>
<path d="" fill="#C9CACA" transform="translate(0,0)"/>
<path d="" fill="#BBBBBB" transform="translate(0,0)"/>
<path d="" fill="#C5C5C6" transform="translate(0,0)"/>
<path d="" fill="#C9CAC8" transform="translate(0,0)"/>
<path d="" fill="#C8C9C9" transform="translate(0,0)"/>
<path d="" fill="#C0C1C0" transform="translate(0,0)"/>
<path d="" fill="#BBBBBF" transform="translate(0,0)"/>
<path d="" fill="#BDBBBC" transform="translate(0,0)"/>
<path d="" fill="#BBBCBA" transform="translate(0,0)"/>
<path d="" fill="#C3C4C4" transform="translate(0,0)"/>
<path d="" fill="#C0C0C1" transform="translate(0,0)"/>
<path d="" fill="#CBCCCA" transform="translate(0,0)"/>
<path d="" fill="#CDCDCD" transform="translate(0,0)"/>
<path d="" fill="#CAC9CC" transform="translate(0,0)"/>
<path d="" fill="#CBCCCC" transform="translate(0,0)"/>
<path d="" fill="#BBBCBC" transform="translate(0,0)"/>
<path d="" fill="#C6C6C5" transform="translate(0,0)"/>
<path d="" fill="#C4C4C3" transform="translate(0,0)"/>
<path d="" fill="#C2C2C3" transform="translate(0,0)"/>
<path d="" fill="#BCBCBB" transform="translate(0,0)"/>
<path d="" fill="#C7C7C6" transform="translate(0,0)"/>
<path d="" fill="#C0C2C2" transform="translate(0,0)"/>
<path d="" fill="#CCCBCC" transform="translate(0,0)"/>
<path d="" fill="#CBCAC9" transform="translate(0,0)"/>
<path d="" fill="#BDBDBE" transform="translate(0,0)"/>
<path d="" fill="#C0C2C2" transform="translate(0,0)"/>
<path d="" fill="#CBCBCC" transform="translate(0,0)"/>
<path d="" fill="#BCBDBD" transform="translate(0,0)"/>
<path d="" fill="#BFBFC0" transform="translate(0,0)"/>
<path d="" fill="#C3C3C0" transform="translate(0,0)"/>
<path d="" fill="#C1BFC2" transform="translate(0,0)"/>
<path d="" fill="#BFBFC2" transform="translate(0,0)"/>
<path d="" fill="#BCBCBC" transform="translate(0,0)"/>
<path d="" fill="#CECFCF" transform="translate(0,0)"/>
<path d="" fill="#BBBBBC" transform="translate(0,0)"/>
<path d="" fill="#C1C0C2" transform="translate(0,0)"/>
<path d="" fill="#BFBFC0" transform="translate(0,0)"/>
<path d="" fill="#BBBCBC" transform="translate(0,0)"/>
<path d="" fill="#CCCDCE" transform="translate(0,0)"/>
<path d="" fill="#C3C4C3" transform="translate(0,0)"/>
<path d="" fill="#CDCBCB" transform="translate(0,0)"/>
<path d="" fill="#C2C4C2" transform="translate(0,0)"/>
<path d="" fill="#C1C2C3" transform="translate(0,0)"/>
<path d="" fill="#C0C1C2" transform="translate(0,0)"/>
<path d="" fill="#BEBFC1" transform="translate(0,0)"/>
<path d="" fill="#C3C2C3" transform="translate(0,0)"/>
<path d="" fill="#C1C2C3" transform="translate(0,0)"/>
<path d="" fill="#BDBCBE" transform="translate(0,0)"/>
<path d="" fill="#BDBEBE" transform="translate(0,0)"/>
<path d="" fill="#C2C0C3" transform="translate(0,0)"/>
<path d="" fill="#C4C4C4" transform="translate(0,0)"/>
<path d="" fill="#C1C4C3" transform="translate(0,0)"/>
<path d="" fill="#C2C4C4" transform="translate(0,0)"/>
<path d="" fill="#C1C1C0" transform="translate(0,0)"/>
<path d="" fill="#BFBFC0" transform="translate(0,0)"/>
<path d="" fill="#BBB9BB" transform="translate(0,0)"/>
<path d="" fill="#BCBDBE" transform="translate(0,0)"/>
<path d="" fill="#C4C5C5" transform="translate(0,0)"/>
<path d="" fill="#BCBDBE" transform="translate(0,0)"/>
<path d="" fill="#C3C5C3" transform="translate(0,0)"/>
<path d="" fill="#C1C1C2" transform="translate(0,0)"/>
<path d="" fill="#BCBDBB" transform="translate(0,0)"/>
<path d="" fill="#C2C2C3" transform="translate(0,0)"/>
<path d="" fill="#C2C2C3" transform="translate(0,0)"/>
<path d="" fill="#C4C1C2" transform="translate(0,0)"/>
<path d="" fill="#C3C3C4" transform="translate(0,0)"/>
<path d="" fill="#C2C2C4" transform="translate(0,0)"/>
<path d="" fill="#BDBBBA" transform="translate(0,0)"/>
<path d="" fill="#C0BFBD" transform="translate(0,0)"/>
<path d="" fill="#C4C5C7" transform="translate(0,0)"/>
<path d="" fill="#BBBBBC" transform="translate(0,0)"/>
<path d="" fill="#BBBBBB" transform="translate(0,0)"/>
<path d="" fill="#BFBEBF" transform="translate(0,0)"/>
<path d="" fill="#BABBBB" transform="translate(0,0)"/>
<path d="" fill="#BDBFBC" transform="translate(0,0)"/>
<path d="" fill="#C1C1C0" transform="translate(0,0)"/>
<path d="" fill="#BBBBBC" transform="translate(0,0)"/>
<path d="" fill="#BCBCBC" transform="translate(0,0)"/>
<path d="" fill="#BEBFC1" transform="translate(0,0)"/>
<path d="" fill="#BFBFBE" transform="translate(0,0)"/>
<path d="" fill="#B9BAB9" transform="translate(0,0)"/>
<path d="" fill="#C0C2C1" transform="translate(0,0)"/>
<path d="" fill="#BDBFBE" transform="translate(0,0)"/>
<path d="" fill="#BFBFC1" transform="translate(0,0)"/>
<path d="" fill="#BBBABA" transform="translate(0,0)"/>
<path d="" fill="#BABABB" transform="translate(0,0)"/>
<path d="" fill="#B8B8BC" transform="translate(0,0)"/>
<path d="" fill="#C1BFC1" transform="translate(0,0)"/>
<path d="" fill="#C6C6C4" transform="translate(0,0)"/>
<path d="" fill="#C0C1C1" transform="translate(0,0)"/>
<path d="" fill="#C0C1C1" transform="translate(0,0)"/>
<path d="" fill="#C1C3C1" transform="translate(0,0)"/>
<path d="" fill="#BEBCBF" transform="translate(0,0)"/>
<path d="" fill="#B7B9B7" transform="translate(0,0)"/>
<path d="" fill="#C1C2C2" transform="translate(0,0)"/>
<path d="" fill="#C0C0C1" transform="translate(0,0)"/>
<path d="" fill="#BDBBBB" transform="translate(0,0)"/>
<path d="" fill="#C1C3C1" transform="translate(0,0)"/>
<path d="" fill="#C3C2C1" transform="translate(0,0)"/>
<path d="" fill="#BEBFBE" transform="translate(0,0)"/>
<path d="" fill="#C1C1C1" transform="translate(0,0)"/>
<path d="" fill="#BEC0C2" transform="translate(0,0)"/>
<path d="" fill="#C1C0C1" transform="translate(0,0)"/>
<path d="" fill="#C1C1C3" transform="translate(0,0)"/>
<path d="" fill="#BFC0BF" transform="translate(0,0)"/>
<path d="" fill="#B7BAB9" transform="translate(0,0)"/>
<path d="" fill="#BBBCBD" transform="translate(0,0)"/>
<path d="" fill="#C9C5C7" transform="translate(0,0)"/>
<path d="" fill="#BFC0C0" transform="translate(0,0)"/>
<path d="" fill="#C6C6C5" transform="translate(0,0)"/>
<path d="" fill="#B9BABA" transform="translate(0,0)"/>
<path d="" fill="#B7B7B9" transform="translate(0,0)"/>
<path d="" fill="#C5C4C4" transform="translate(0,0)"/>
<path d="" fill="#C3C4C2" transform="translate(0,0)"/>
<path d="" fill="#B7B8B6" transform="translate(0,0)"/>
<path d="" fill="#BEC1C0" transform="translate(0,0)"/>
<path d="" fill="#B5B8B9" transform="translate(0,0)"/>
<path d="" fill="#B6B9B8" transform="translate(0,0)"/>
<path d="" fill="#B4B5B5" transform="translate(0,0)"/>
<path d="" fill="#B7B8B7" transform="translate(0,0)"/>
<path d="" fill="#B8B9B9" transform="translate(0,0)"/>
<path d="" fill="#BEC1C0" transform="translate(0,0)"/>
<path d="" fill="#C5C4C5" transform="translate(0,0)"/>
<path d="" fill="#C1BFC2" transform="translate(0,0)"/>
<path d="" fill="#B9BAB8" transform="translate(0,0)"/>
<path d="" fill="#C2C1C2" transform="translate(0,0)"/>
<path d="" fill="#BBB7B8" transform="translate(0,0)"/>
<path d="" fill="#C0C0BF" transform="translate(0,0)"/>
<path d="" fill="#BBBCBC" transform="translate(0,0)"/>
<path d="" fill="#C4C5C4" transform="translate(0,0)"/>
<path d="" fill="#C7C7C5" transform="translate(0,0)"/>
<path d="" fill="#C0C2BF" transform="translate(0,0)"/>
<path d="" fill="#BABBBC" transform="translate(0,0)"/>
<path d="" fill="#C3C1C2" transform="translate(0,0)"/>
<path d="" fill="#B7B8B9" transform="translate(0,0)"/>
<path d="" fill="#C5C4C5" transform="translate(0,0)"/>
<path d="" fill="#C2C3C2" transform="translate(0,0)"/>
<path d="" fill="#BABABA" transform="translate(0,0)"/>
<path d="" fill="#BBBABD" transform="translate(0,0)"/>
<path d="" fill="#C6C3C4" transform="translate(0,0)"/>
<path d="" fill="#C5C4C5" transform="translate(0,0)"/>
<path d="" fill="#C6C8C8" transform="translate(0,0)"/>
<path d="" fill="#C8C8C9" transform="translate(0,0)"/>
<path d="" fill="#C6C6C6" transform="translate(0,0)"/>
<path d="" fill="#C4C6C5" transform="translate(0,0)"/>
<path d="" fill="#C4C5C5" transform="translate(0,0)"/>
<path d="" fill="#C6C4C5" transform="translate(0,0)"/>
<path d="" fill="#C7C7C7" transform="translate(0,0)"/>
<path d="" fill="#B8BABA" transform="translate(0,0)"/>
<path d="" fill="#BABBBB" transform="translate(0,0)"/>
<path d="" fill="#B6B8B7" transform="translate(0,0)"/>
<path d="" fill="#B7B8BA" transform="translate(0,0)"/>
<path d="" fill="#B9BABC" transform="translate(0,0)"/>
<path d="" fill="#B9B9B9" transform="translate(0,0)"/>
<path d="" fill="#BBBCBD" transform="translate(0,0)"/>
<path d="" fill="#BFBFBF" transform="translate(0,0)"/>
<path d="" fill="#BEC0C0" transform="translate(0,0)"/>
<path d="" fill="#BBBCBD" transform="translate(0,0)"/>
<path d="" fill="#BBBABC" transform="translate(0,0)"/>
<path d="" fill="#BCBDBD" transform="translate(0,0)"/>
</svg>
