<?xml version="1.0" encoding="UTF-8"?>
<svg version="1.1" xmlns="http://www.w3.org/2000/svg" width="32" height="32">
<path d="M0 0 C7.26 0 14.52 0 22 0 C21.71125 3.09375 21.4225 6.1875 21.125 9.375 C21.03879395 10.34872559 20.95258789 11.32245117 20.86376953 12.32568359 C20.78755371 13.09219238 20.71133789 13.85870117 20.6328125 14.6484375 C20.52283936 15.82672119 20.52283936 15.82672119 20.41064453 17.02880859 C20 19 20 19 18 21 C14.8125 21.265625 14.8125 21.265625 11 21.25 C9.741875 21.25515625 8.48375 21.2603125 7.1875 21.265625 C4 21 4 21 2 19 C1.58935547 17.02880859 1.58935547 17.02880859 1.3671875 14.6484375 C1.29097168 13.88192871 1.21475586 13.11541992 1.13623047 12.32568359 C1.05002441 11.35195801 0.96381836 10.37823242 0.875 9.375 C0.58625 6.28125 0.2975 3.1875 0 0 Z M8 4 C6.74050951 5.03406673 6.74050951 5.03406673 6.90234375 7.28515625 C6.91394531 8.20167969 6.92554688 9.11820313 6.9375 10.0625 C6.94652344 10.98160156 6.95554687 11.90070312 6.96484375 12.84765625 C6.97644531 13.55792969 6.98804688 14.26820312 7 15 C7.99 15.495 7.99 15.495 9 16 C9 12.04 9 8.08 9 4 C8.67 4 8.34 4 8 4 Z M13 4 C13 7.96 13 11.92 13 16 C13.66 15.67 14.32 15.34 15 15 C15 11.7 15 8.4 15 5 C14.34 4.67 13.68 4.34 13 4 Z " fill="#FFFFFF" transform="translate(5,9)"/>
<path d="M0 0 C3 0.125 3 0.125 4 1.125 C5.34747084 1.35575082 6.70377565 1.53653063 8.0625 1.6875 C9.361875 1.831875 10.66125 1.97625 12 2.125 C12 3.115 12 4.105 12 5.125 C4.08 5.125 -3.84 5.125 -12 5.125 C-12 4.135 -12 3.145 -12 2.125 C-9.94921875 1.89713542 -7.8984375 1.66927083 -5.84765625 1.44140625 C-3.03420402 0.95960999 -3.27093134 0.13628881 0 0 Z " fill="#FFFFFF" transform="translate(16,1.875)"/>
</svg>
